<svg width="38" height="33" viewBox="0 0 38 33" fill="none" xmlns="http://www.w3.org/2000/svg">
<path d="M34.4375 16.5H3.5625C2.61767 16.5 1.71153 16.8725 1.04343 17.5356C0.375334 18.1987 0 19.098 0 20.0357C0 20.9734 0.375334 21.8728 1.04343 22.5358C1.71153 23.1989 2.61767 23.5714 3.5625 23.5714H34.4375C35.3823 23.5714 36.2885 23.1989 36.9566 22.5358C37.6247 21.8728 38 20.9734 38 20.0357C38 19.098 37.6247 18.1987 36.9566 17.5356C36.2885 16.8725 35.3823 16.5 34.4375 16.5ZM35.625 25.9286H2.375C2.06006 25.9286 1.75801 26.0527 1.53531 26.2738C1.31261 26.4948 1.1875 26.7946 1.1875 27.1071V28.2857C1.1875 29.536 1.68795 30.7351 2.57874 31.6192C3.46954 32.5033 4.67772 33 5.9375 33H32.0625C33.3223 33 34.5305 32.5033 35.4213 31.6192C36.3121 30.7351 36.8125 29.536 36.8125 28.2857V27.1071C36.8125 26.7946 36.6874 26.4948 36.4647 26.2738C36.242 26.0527 35.9399 25.9286 35.625 25.9286ZM4.35219 14.1429H33.6478C36.2136 14.1429 37.7016 10.9092 36.2321 8.55348C33.25 3.77143 26.6854 0.00736607 19 0C11.3154 0.00736607 4.75 3.77143 1.76789 8.55274C0.296875 10.9084 1.78645 14.1429 4.35219 14.1429ZM28.5 5.89286C28.7349 5.89286 28.9645 5.96198 29.1597 6.09148C29.355 6.22099 29.5072 6.40505 29.5971 6.62041C29.687 6.83576 29.7105 7.07274 29.6647 7.30136C29.6189 7.52998 29.5058 7.73998 29.3397 7.9048C29.1736 8.06963 28.962 8.18188 28.7317 8.22735C28.5013 8.27283 28.2626 8.24949 28.0456 8.16029C27.8286 8.07108 27.6431 7.92002 27.5126 7.72621C27.3821 7.53239 27.3125 7.30453 27.3125 7.07143C27.3125 6.75885 27.4376 6.45908 27.6603 6.23805C27.883 6.01703 28.1851 5.89286 28.5 5.89286ZM19 3.53571C19.2349 3.53571 19.4645 3.60484 19.6597 3.73434C19.855 3.86384 20.0072 4.04791 20.0971 4.26327C20.187 4.47862 20.2105 4.71559 20.1647 4.94421C20.1189 5.17283 20.0058 5.38284 19.8397 5.54766C19.6736 5.71249 19.462 5.82474 19.2317 5.87021C19.0013 5.91569 18.7626 5.89235 18.5456 5.80314C18.3286 5.71394 18.1431 5.56288 18.0126 5.36906C17.8821 5.17525 17.8125 4.94739 17.8125 4.71429C17.8125 4.40171 17.9376 4.10193 18.1603 3.88091C18.383 3.65988 18.6851 3.53571 19 3.53571ZM9.5 5.89286C9.73487 5.89286 9.96446 5.96198 10.1597 6.09148C10.355 6.22099 10.5072 6.40505 10.5971 6.62041C10.687 6.83576 10.7105 7.07274 10.6647 7.30136C10.6189 7.52998 10.5058 7.73998 10.3397 7.9048C10.1736 8.06963 9.96202 8.18188 9.73167 8.22735C9.50132 8.27283 9.26255 8.24949 9.04556 8.16029C8.82858 8.07108 8.64311 7.92002 8.51263 7.72621C8.38215 7.53239 8.3125 7.30453 8.3125 7.07143C8.3125 6.75885 8.43761 6.45908 8.66031 6.23805C8.88301 6.01703 9.18506 5.89286 9.5 5.89286Z" fill="#333333"/>
<rect y="16" width="38" height="8" rx="4" fill="#EB5757"/>
</svg>
