<svg width="198" height="60" viewBox="0 0 198 60" fill="none" xmlns="http://www.w3.org/2000/svg">
<path d="M65.532 27.04C66.996 27.352 68.172 28.084 69.06 29.236C69.948 30.364 70.392 31.66 70.392 33.124C70.392 35.236 69.648 36.916 68.16 38.164C66.696 39.388 64.644 40 62.004 40H50.232V14.728H61.608C64.176 14.728 66.18 15.316 67.62 16.492C69.084 17.668 69.816 19.264 69.816 21.28C69.816 22.768 69.42 24.004 68.628 24.988C67.86 25.972 66.828 26.656 65.532 27.04ZM56.388 24.952H60.42C61.428 24.952 62.196 24.736 62.724 24.304C63.276 23.848 63.552 23.188 63.552 22.324C63.552 21.46 63.276 20.8 62.724 20.344C62.196 19.888 61.428 19.66 60.42 19.66H56.388V24.952ZM60.924 35.032C61.956 35.032 62.748 34.804 63.3 34.348C63.876 33.868 64.164 33.184 64.164 32.296C64.164 31.408 63.864 30.712 63.264 30.208C62.688 29.704 61.884 29.452 60.852 29.452H56.388V35.032H60.924ZM93.7985 19.912V40H87.6425V37.264C87.0185 38.152 86.1665 38.872 85.0865 39.424C84.0305 39.952 82.8545 40.216 81.5585 40.216C80.0225 40.216 78.6665 39.88 77.4905 39.208C76.3145 38.512 75.4025 37.516 74.7545 36.22C74.1065 34.924 73.7825 33.4 73.7825 31.648V19.912H79.9025V30.82C79.9025 32.164 80.2505 33.208 80.9465 33.952C81.6425 34.696 82.5785 35.068 83.7545 35.068C84.9545 35.068 85.9025 34.696 86.5985 33.952C87.2945 33.208 87.6425 32.164 87.6425 30.82V19.912H93.7985ZM104.376 23.26C105.096 22.156 105.996 21.292 107.076 20.668C108.156 20.02 109.356 19.696 110.676 19.696V26.212H108.984C107.448 26.212 106.296 26.548 105.528 27.22C104.76 27.868 104.376 29.02 104.376 30.676V40H98.2203V19.912H104.376V23.26ZM121.251 19.624C122.667 19.624 123.903 19.912 124.959 20.488C126.039 21.064 126.867 21.82 127.443 22.756V19.912H133.599V39.964C133.599 41.812 133.227 43.48 132.483 44.968C131.763 46.48 130.647 47.68 129.135 48.568C127.647 49.456 125.787 49.9 123.555 49.9C120.579 49.9 118.167 49.192 116.319 47.776C114.471 46.384 113.415 44.488 113.151 42.088H119.235C119.427 42.856 119.883 43.456 120.603 43.888C121.323 44.344 122.211 44.572 123.267 44.572C124.539 44.572 125.547 44.2 126.291 43.456C127.059 42.736 127.443 41.572 127.443 39.964V37.12C126.843 38.056 126.015 38.824 124.959 39.424C123.903 40 122.667 40.288 121.251 40.288C119.595 40.288 118.095 39.868 116.751 39.028C115.407 38.164 114.339 36.952 113.547 35.392C112.779 33.808 112.395 31.984 112.395 29.92C112.395 27.856 112.779 26.044 113.547 24.484C114.339 22.924 115.407 21.724 116.751 20.884C118.095 20.044 119.595 19.624 121.251 19.624ZM127.443 29.956C127.443 28.42 127.011 27.208 126.147 26.32C125.307 25.432 124.275 24.988 123.051 24.988C121.827 24.988 120.783 25.432 119.919 26.32C119.079 27.184 118.659 28.384 118.659 29.92C118.659 31.456 119.079 32.68 119.919 33.592C120.783 34.48 121.827 34.924 123.051 34.924C124.275 34.924 125.307 34.48 126.147 33.592C127.011 32.704 127.443 31.492 127.443 29.956ZM157.888 19.912V40H151.732V37.264C151.108 38.152 150.256 38.872 149.176 39.424C148.12 39.952 146.944 40.216 145.648 40.216C144.112 40.216 142.756 39.88 141.58 39.208C140.404 38.512 139.492 37.516 138.844 36.22C138.196 34.924 137.872 33.4 137.872 31.648V19.912H143.992V30.82C143.992 32.164 144.34 33.208 145.036 33.952C145.732 34.696 146.668 35.068 147.844 35.068C149.044 35.068 149.992 34.696 150.688 33.952C151.384 33.208 151.732 32.164 151.732 30.82V19.912H157.888ZM181.246 29.632C181.246 30.208 181.21 30.808 181.138 31.432H167.206C167.302 32.68 167.698 33.64 168.394 34.312C169.114 34.96 169.99 35.284 171.022 35.284C172.558 35.284 173.626 34.636 174.226 33.34H180.778C180.442 34.66 179.83 35.848 178.942 36.904C178.078 37.96 176.986 38.788 175.666 39.388C174.346 39.988 172.87 40.288 171.238 40.288C169.27 40.288 167.518 39.868 165.982 39.028C164.446 38.188 163.246 36.988 162.382 35.428C161.518 33.868 161.086 32.044 161.086 29.956C161.086 27.868 161.506 26.044 162.346 24.484C163.21 22.924 164.41 21.724 165.946 20.884C167.482 20.044 169.246 19.624 171.238 19.624C173.182 19.624 174.91 20.032 176.422 20.848C177.934 21.664 179.11 22.828 179.95 24.34C180.814 25.852 181.246 27.616 181.246 29.632ZM174.946 28.012C174.946 26.956 174.586 26.116 173.866 25.492C173.146 24.868 172.246 24.556 171.166 24.556C170.134 24.556 169.258 24.856 168.538 25.456C167.842 26.056 167.41 26.908 167.242 28.012H174.946ZM190.65 23.26C191.37 22.156 192.27 21.292 193.35 20.668C194.43 20.02 195.63 19.696 196.95 19.696V26.212H195.258C193.722 26.212 192.57 26.548 191.802 27.22C191.034 27.868 190.65 29.02 190.65 30.676V40H184.494V19.912H190.65V23.26Z" fill="#333333"/>
<path d="M150.504 54L146.728 49.04V54H143.992V42.768H146.728V47.696L150.472 42.768H153.688L149.336 48.272L153.848 54H150.504ZM163.564 49.392C163.564 49.648 163.548 49.9147 163.516 50.192H157.324C157.367 50.7467 157.543 51.1733 157.852 51.472C158.172 51.76 158.562 51.904 159.02 51.904C159.703 51.904 160.178 51.616 160.444 51.04H163.356C163.207 51.6267 162.935 52.1547 162.54 52.624C162.156 53.0933 161.671 53.4613 161.084 53.728C160.498 53.9947 159.842 54.128 159.116 54.128C158.242 54.128 157.463 53.9413 156.78 53.568C156.098 53.1947 155.564 52.6613 155.18 51.968C154.796 51.2747 154.604 50.464 154.604 49.536C154.604 48.608 154.791 47.7973 155.164 47.104C155.548 46.4107 156.082 45.8773 156.764 45.504C157.447 45.1307 158.231 44.944 159.116 44.944C159.98 44.944 160.748 45.1253 161.42 45.488C162.092 45.8507 162.615 46.368 162.988 47.04C163.372 47.712 163.564 48.496 163.564 49.392ZM160.764 48.672C160.764 48.2027 160.604 47.8293 160.284 47.552C159.964 47.2747 159.564 47.136 159.084 47.136C158.626 47.136 158.236 47.2693 157.916 47.536C157.607 47.8027 157.415 48.1813 157.34 48.672H160.764ZM170.448 44.976C171.493 44.976 172.325 45.3173 172.944 46C173.573 46.672 173.888 47.6 173.888 48.784V54H171.168V49.152C171.168 48.5547 171.013 48.0907 170.704 47.76C170.394 47.4293 169.978 47.264 169.456 47.264C168.933 47.264 168.517 47.4293 168.208 47.76C167.898 48.0907 167.744 48.5547 167.744 49.152V54H165.008V45.072H167.744V46.256C168.021 45.8613 168.394 45.552 168.864 45.328C169.333 45.0933 169.861 44.976 170.448 44.976ZM178.349 51.744H182.221V54H175.293V51.824L179.005 47.328H175.325V45.072H182.141V47.248L178.349 51.744ZM185.102 44.144C184.622 44.144 184.228 44.0053 183.918 43.728C183.62 43.44 183.47 43.088 183.47 42.672C183.47 42.2453 183.62 41.8933 183.918 41.616C184.228 41.328 184.622 41.184 185.102 41.184C185.572 41.184 185.956 41.328 186.254 41.616C186.564 41.8933 186.718 42.2453 186.718 42.672C186.718 43.088 186.564 43.44 186.254 43.728C185.956 44.0053 185.572 44.144 185.102 44.144ZM186.462 45.072V54H183.726V45.072H186.462ZM196.861 49.392C196.861 49.648 196.845 49.9147 196.813 50.192H190.621C190.664 50.7467 190.84 51.1733 191.149 51.472C191.469 51.76 191.858 51.904 192.317 51.904C193 51.904 193.474 51.616 193.741 51.04H196.653C196.504 51.6267 196.232 52.1547 195.837 52.624C195.453 53.0933 194.968 53.4613 194.381 53.728C193.794 53.9947 193.138 54.128 192.413 54.128C191.538 54.128 190.76 53.9413 190.077 53.568C189.394 53.1947 188.861 52.6613 188.477 51.968C188.093 51.2747 187.901 50.464 187.901 49.536C187.901 48.608 188.088 47.7973 188.461 47.104C188.845 46.4107 189.378 45.8773 190.061 45.504C190.744 45.1307 191.528 44.944 192.413 44.944C193.277 44.944 194.045 45.1253 194.717 45.488C195.389 45.8507 195.912 46.368 196.285 47.04C196.669 47.712 196.861 48.496 196.861 49.392ZM194.061 48.672C194.061 48.2027 193.901 47.8293 193.581 47.552C193.261 47.2747 192.861 47.136 192.381 47.136C191.922 47.136 191.533 47.2693 191.213 47.536C190.904 47.8027 190.712 48.1813 190.637 48.672H194.061Z" fill="#EB5757"/>
<path d="M34.4375 30.5H3.5625C2.61767 30.5 1.71153 30.8725 1.04343 31.5356C0.375334 32.1987 0 33.098 0 34.0357C0 34.9734 0.375334 35.8728 1.04343 36.5358C1.71153 37.1989 2.61767 37.5714 3.5625 37.5714H34.4375C35.3823 37.5714 36.2885 37.1989 36.9566 36.5358C37.6247 35.8728 38 34.9734 38 34.0357C38 33.098 37.6247 32.1987 36.9566 31.5356C36.2885 30.8725 35.3823 30.5 34.4375 30.5ZM35.625 39.9286H2.375C2.06006 39.9286 1.75801 40.0527 1.53531 40.2738C1.31261 40.4948 1.1875 40.7946 1.1875 41.1071V42.2857C1.1875 43.536 1.68795 44.7351 2.57874 45.6192C3.46954 46.5033 4.67772 47 5.9375 47H32.0625C33.3223 47 34.5305 46.5033 35.4213 45.6192C36.3121 44.7351 36.8125 43.536 36.8125 42.2857V41.1071C36.8125 40.7946 36.6874 40.4948 36.4647 40.2738C36.242 40.0527 35.9399 39.9286 35.625 39.9286ZM4.35219 28.1429H33.6478C36.2136 28.1429 37.7016 24.9092 36.2321 22.5535C33.25 17.7714 26.6854 14.0074 19 14C11.3154 14.0074 4.75 17.7714 1.76789 22.5527C0.296875 24.9084 1.78645 28.1429 4.35219 28.1429ZM28.5 19.8929C28.7349 19.8929 28.9645 19.962 29.1597 20.0915C29.355 20.221 29.5072 20.4051 29.5971 20.6204C29.687 20.8358 29.7105 21.0727 29.6647 21.3014C29.6189 21.53 29.5058 21.74 29.3397 21.9048C29.1736 22.0696 28.962 22.1819 28.7317 22.2274C28.5013 22.2728 28.2626 22.2495 28.0456 22.1603C27.8286 22.0711 27.6431 21.92 27.5126 21.7262C27.3821 21.5324 27.3125 21.3045 27.3125 21.0714C27.3125 20.7589 27.4376 20.4591 27.6603 20.2381C27.883 20.017 28.1851 19.8929 28.5 19.8929ZM19 17.5357C19.2349 17.5357 19.4645 17.6048 19.6597 17.7343C19.855 17.8638 20.0072 18.0479 20.0971 18.2633C20.187 18.4786 20.2105 18.7156 20.1647 18.9442C20.1189 19.1728 20.0058 19.3828 19.8397 19.5477C19.6736 19.7125 19.462 19.8247 19.2317 19.8702C19.0013 19.9157 18.7626 19.8923 18.5456 19.8031C18.3286 19.7139 18.1431 19.5629 18.0126 19.3691C17.8821 19.1752 17.8125 18.9474 17.8125 18.7143C17.8125 18.4017 17.9376 18.1019 18.1603 17.8809C18.383 17.6599 18.6851 17.5357 19 17.5357ZM9.5 19.8929C9.73487 19.8929 9.96446 19.962 10.1597 20.0915C10.355 20.221 10.5072 20.4051 10.5971 20.6204C10.687 20.8358 10.7105 21.0727 10.6647 21.3014C10.6189 21.53 10.5058 21.74 10.3397 21.9048C10.1736 22.0696 9.96202 22.1819 9.73167 22.2274C9.50132 22.2728 9.26255 22.2495 9.04556 22.1603C8.82858 22.0711 8.64311 21.92 8.51263 21.7262C8.38215 21.5324 8.3125 21.3045 8.3125 21.0714C8.3125 20.7589 8.43761 20.4591 8.66031 20.2381C8.88301 20.017 9.18506 19.8929 9.5 19.8929Z" fill="#333333"/>
<rect y="30" width="38" height="8" rx="4" fill="#EB5757"/>
</svg>
